{
    "asset" : {
        "generator" : "Khronos glTF Blender I/O v1.6.16",
        "version" : "2.0"
    },
    "scene" : 0,
    "scenes" : [
        {
            "name" : "Scene",
            "nodes" : [
                12,
                13,
                14
            ]
        }
    ],
    "nodes" : [
        {
            "name" : "Circle.001_1",
            "rotation" : [
                0.6991696953773499,
                -0.1056491956114769,
                -0.10564921796321869,
                0.6991696953773499
            ],
            "scale" : [
                0.194011390209198,
                0.13041755557060242,
                0.194011390209198
            ],
            "translation" : [
                -1.1261606216430664,
                -0.2823565900325775,
                0
            ]
        },
        {
            "name" : "Circle_0",
            "rotation" : [
                0.6991696953773499,
                -0.1056491956114769,
                -0.10564921796321869,
                0.6991696953773499
            ],
            "scale" : [
                0.194011390209198,
                0.13041755557060242,
                0.194011390209198
            ],
            "translation" : [
                1.1713083982467651,
                -0.2823566496372223,
                0
            ]
        },
        {
            "mesh" : 0,
            "name" : "Mesh_0"
        },
        {
            "mesh" : 1,
            "name" : "Mesh_1"
        },
        {
            "mesh" : 2,
            "name" : "Mesh_2"
        },
        {
            "mesh" : 3,
            "name" : "Mesh_3"
        },
        {
            "mesh" : 4,
            "name" : "Mesh_4"
        },
        {
            "mesh" : 5,
            "name" : "Mesh_5"
        },
        {
            "children" : [
                0,
                1,
                2,
                3,
                4,
                5,
                6,
                7
            ],
            "name" : "Cube_2"
        },
        {
            "children" : [
                8
            ],
            "name" : "GLTF_SceneRootNode",
            "rotation" : [
                0.7071068286895752,
                0,
                0,
                0.7071068286895752
            ]
        },
        {
            "children" : [
                9
            ],
            "name" : "root"
        },
        {
            "children" : [
                10
            ],
            "name" : "RootNode (model correction matrix)"
        },
        {
            "children" : [
                11
            ],
            "name" : "RootNode (gltf orientation matrix)",
            "rotation" : [
                -0.5,
                -0.5,
                -0.5,
                0.5
            ]
        },
        {
            "name" : "Light",
            "rotation" : [
                0.3120088577270508,
                0.13076725602149963,
                -0.07289960980415344,
                0.938209056854248
            ],
            "translation" : [
                6.790611743927002,
                5.903861999511719,
                2.237978935241699
            ]
        },
        {
            "name" : "Camera",
            "rotation" : [
                0.48948734998703003,
                -0.31368041038513184,
                0.19433586299419403,
                0.7900887727737427
            ],
            "translation" : [
                -1.1406326293945312,
                4.958309173583984,
                5.52062463760376
            ]
        }
    ],
    "materials" : [
        {
            "doubleSided" : true,
            "name" : "Base.001",
            "pbrMetallicRoughness" : {
                "baseColorFactor" : [
                    0.11906474083662033,
                    0.11906474083662033,
                    0.11906474083662033,
                    1
                ],
                "metallicFactor" : 0
            }
        },
        {
            "doubleSided" : true,
            "name" : "TeslaBlack.002",
            "pbrMetallicRoughness" : {
                "baseColorFactor" : [
                    0.16826944053173065,
                    0.17464745044708252,
                    0.19806936383247375,
                    1
                ],
                "metallicRoughnessTexture" : {
                    "index" : 0
                },
                "roughnessFactor" : 0.800495445728302
            }
        },
        {
            "doubleSided" : true,
            "emissiveFactor" : [
                1,
                1,
                1
            ],
            "name" : "TeslaFrontLight.001",
            "pbrMetallicRoughness" : {}
        },
        {
            "doubleSided" : true,
            "emissiveFactor" : [
                1,
                0.029069799929857254,
                0.03288419917225838
            ],
            "name" : "TeslaRearLight.001",
            "pbrMetallicRoughness" : {
                "baseColorFactor" : [
                    0,
                    0,
                    0,
                    1
                ],
                "metallicFactor" : 0
            }
        },
        {
            "doubleSided" : true,
            "name" : "Material.002",
            "pbrMetallicRoughness" : {
                "baseColorFactor" : [
                    0.22153469920158386,
                    0.2179238349199295,
                    0.2206285446882248,
                    1
                ],
                "metallicFactor" : 0,
                "roughnessFactor" : 0
            }
        },
        {
            "doubleSided" : true,
            "emissiveFactor" : [
                1,
                0.10738600045442581,
                0
            ],
            "name" : "Material.003",
            "pbrMetallicRoughness" : {}
        }
    ],
    "meshes" : [
        {
            "name" : "Mesh_0.001",
            "primitives" : [
                {
                    "attributes" : {
                        "POSITION" : 0,
                        "NORMAL" : 1,
                        "TEXCOORD_0" : 2
                    },
                    "indices" : 3,
                    "material" : 0
                }
            ]
        },
        {
            "name" : "Mesh_1.001",
            "primitives" : [
                {
                    "attributes" : {
                        "POSITION" : 4,
                        "NORMAL" : 5,
                        "TEXCOORD_0" : 6
                    },
                    "indices" : 7,
                    "material" : 1
                }
            ]
        },
        {
            "name" : "Mesh_2.001",
            "primitives" : [
                {
                    "attributes" : {
                        "POSITION" : 8,
                        "NORMAL" : 9,
                        "TEXCOORD_0" : 10
                    },
                    "indices" : 11,
                    "material" : 2
                }
            ]
        },
        {
            "name" : "Mesh_3.001",
            "primitives" : [
                {
                    "attributes" : {
                        "POSITION" : 12,
                        "NORMAL" : 13,
                        "TEXCOORD_0" : 14
                    },
                    "indices" : 15,
                    "material" : 3
                }
            ]
        },
        {
            "name" : "Mesh_4.001",
            "primitives" : [
                {
                    "attributes" : {
                        "POSITION" : 16,
                        "NORMAL" : 17,
                        "TEXCOORD_0" : 18
                    },
                    "indices" : 19,
                    "material" : 4
                }
            ]
        },
        {
            "name" : "Mesh_5.001",
            "primitives" : [
                {
                    "attributes" : {
                        "POSITION" : 20,
                        "NORMAL" : 21,
                        "TEXCOORD_0" : 22
                    },
                    "indices" : 23,
                    "material" : 5
                }
            ]
        }
    ],
    "textures" : [
        {
            "sampler" : 0,
            "source" : 0
        }
    ],
    "images" : [
        {
            "bufferView" : 8,
            "mimeType" : "image/png",
            "name" : "TeslaBlack_metallicRoughness"
        }
    ],
    "accessors" : [
        {
            "bufferView" : 0,
            "componentType" : 5126,
            "count" : 2070,
            "max" : [
                1.6940151453018188,
                0.5780766010284424,
                0.5852355360984802
            ],
            "min" : [
                -1.7639176845550537,
                -0.2709553837776184,
                -0.5852355360984802
            ],
            "type" : "VEC3"
        },
        {
            "bufferView" : 1,
            "componentType" : 5126,
            "count" : 2070,
            "type" : "VEC3"
        },
        {
            "bufferView" : 2,
            "componentType" : 5126,
            "count" : 2070,
            "type" : "VEC2"
        },
        {
            "bufferView" : 3,
            "componentType" : 5123,
            "count" : 2484,
            "type" : "SCALAR"
        },
        {
            "bufferView" : 4,
            "componentType" : 5126,
            "count" : 1347,
            "max" : [
                1.6559863090515137,
                0.5780766010284424,
                0.6141628623008728
            ],
            "min" : [
                -1.7639176845550537,
                -0.37077227234840393,
                -0.6141628623008728
            ],
            "type" : "VEC3"
        },
        {
            "bufferView" : 5,
            "componentType" : 5126,
            "count" : 1347,
            "type" : "VEC3"
        },
        {
            "bufferView" : 6,
            "componentType" : 5126,
            "count" : 1347,
            "type" : "VEC2"
        },
        {
            "bufferView" : 7,
            "componentType" : 5123,
            "count" : 1710,
            "type" : "SCALAR"
        },
        {
            "bufferView" : 9,
            "componentType" : 5126,
            "count" : 48,
            "max" : [
                1.6926904916763306,
                0.5637744069099426,
                0.5707706809043884
            ],
            "min" : [
                0.24221912026405334,
                -0.2146291434764862,
                -0.5707706809043884
            ],
            "type" : "VEC3"
        },
        {
            "bufferView" : 10,
            "componentType" : 5126,
            "count" : 48,
            "type" : "VEC3"
        },
        {
            "bufferView" : 11,
            "componentType" : 5126,
            "count" : 48,
            "type" : "VEC2"
        },
        {
            "bufferView" : 12,
            "componentType" : 5123,
            "count" : 60,
            "type" : "SCALAR"
        },
        {
            "bufferView" : 13,
            "componentType" : 5126,
            "count" : 24,
            "max" : [
                -1.6536158323287964,
                0.2938229739665985,
                0.5662344098091125
            ],
            "min" : [
                -1.7617961168289185,
                -0.10715173184871674,
                -0.5662344098091125
            ],
            "type" : "VEC3"
        },
        {
            "bufferView" : 14,
            "componentType" : 5126,
            "count" : 24,
            "type" : "VEC3"
        },
        {
            "bufferView" : 15,
            "componentType" : 5126,
            "count" : 24,
            "type" : "VEC2"
        },
        {
            "bufferView" : 16,
            "componentType" : 5123,
            "count" : 24,
            "type" : "SCALAR"
        },
        {
            "bufferView" : 17,
            "componentType" : 5126,
            "count" : 82,
            "max" : [
                1.1827409267425537,
                0.571262776851654,
                0.5494268536567688
            ],
            "min" : [
                -0.6243073344230652,
                0.2447582334280014,
                -0.5494268536567688
            ],
            "type" : "VEC3"
        },
        {
            "bufferView" : 18,
            "componentType" : 5126,
            "count" : 82,
            "type" : "VEC3"
        },
        {
            "bufferView" : 19,
            "componentType" : 5126,
            "count" : 82,
            "type" : "VEC2"
        },
        {
            "bufferView" : 20,
            "componentType" : 5123,
            "count" : 90,
            "type" : "SCALAR"
        },
        {
            "bufferView" : 21,
            "componentType" : 5126,
            "count" : 8,
            "max" : [
                1.6357609033584595,
                -0.12754373252391815,
                0.5324069857597351
            ],
            "min" : [
                1.5150361061096191,
                -0.13462580740451813,
                -0.5324069857597351
            ],
            "type" : "VEC3"
        },
        {
            "bufferView" : 22,
            "componentType" : 5126,
            "count" : 8,
            "type" : "VEC3"
        },
        {
            "bufferView" : 23,
            "componentType" : 5126,
            "count" : 8,
            "type" : "VEC2"
        },
        {
            "bufferView" : 24,
            "componentType" : 5123,
            "count" : 12,
            "type" : "SCALAR"
        }
    ],
    "bufferViews" : [
        {
            "buffer" : 0,
            "byteLength" : 24840,
            "byteOffset" : 0
        },
        {
            "buffer" : 0,
            "byteLength" : 24840,
            "byteOffset" : 24840
        },
        {
            "buffer" : 0,
            "byteLength" : 16560,
            "byteOffset" : 49680
        },
        {
            "buffer" : 0,
            "byteLength" : 4968,
            "byteOffset" : 66240
        },
        {
            "buffer" : 0,
            "byteLength" : 16164,
            "byteOffset" : 71208
        },
        {
            "buffer" : 0,
            "byteLength" : 16164,
            "byteOffset" : 87372
        },
        {
            "buffer" : 0,
            "byteLength" : 10776,
            "byteOffset" : 103536
        },
        {
            "buffer" : 0,
            "byteLength" : 3420,
            "byteOffset" : 114312
        },
        {
            "buffer" : 0,
            "byteLength" : 59712,
            "byteOffset" : 117732
        },
        {
            "buffer" : 0,
            "byteLength" : 576,
            "byteOffset" : 177444
        },
        {
            "buffer" : 0,
            "byteLength" : 576,
            "byteOffset" : 178020
        },
        {
            "buffer" : 0,
            "byteLength" : 384,
            "byteOffset" : 178596
        },
        {
            "buffer" : 0,
            "byteLength" : 120,
            "byteOffset" : 178980
        },
        {
            "buffer" : 0,
            "byteLength" : 288,
            "byteOffset" : 179100
        },
        {
            "buffer" : 0,
            "byteLength" : 288,
            "byteOffset" : 179388
        },
        {
            "buffer" : 0,
            "byteLength" : 192,
            "byteOffset" : 179676
        },
        {
            "buffer" : 0,
            "byteLength" : 48,
            "byteOffset" : 179868
        },
        {
            "buffer" : 0,
            "byteLength" : 984,
            "byteOffset" : 179916
        },
        {
            "buffer" : 0,
            "byteLength" : 984,
            "byteOffset" : 180900
        },
        {
            "buffer" : 0,
            "byteLength" : 656,
            "byteOffset" : 181884
        },
        {
            "buffer" : 0,
            "byteLength" : 180,
            "byteOffset" : 182540
        },
        {
            "buffer" : 0,
            "byteLength" : 96,
            "byteOffset" : 182720
        },
        {
            "buffer" : 0,
            "byteLength" : 96,
            "byteOffset" : 182816
        },
        {
            "buffer" : 0,
            "byteLength" : 64,
            "byteOffset" : 182912
        },
        {
            "buffer" : 0,
            "byteLength" : 24,
            "byteOffset" : 182976
        }
    ],
    "samplers" : [
        {
            "magFilter" : 9729,
            "minFilter" : 9987
        }
    ],
    "buffers" : [
        {
            "byteLength" : 183000,
            "uri" : "data:application/octet-stream;base64,"
        }
    ]
}
