{
    "asset" : {
        "generator" : "Khronos glTF Blender I/O v1.6.16",
        "version" : "2.0"
    },
    "scene" : 0,
    "scenes" : [
        {
            "name" : "Scene",
            "nodes" : [
                1
            ]
        }
    ],
    "nodes" : [
        {
            "mesh" : 0,
            "name" : "Mesh_6"
        },
        {
            "children" : [
                0
            ],
            "name" : "Circle_0",
            "rotation" : [
                0.5690929293632507,
                -0.5690929293632507,
                0.4196823835372925,
                0.4196823835372925
            ],
            "scale" : [
                0.194011390209198,
                0.13041755557060242,
                0.194011390209198
            ],
            "translation" : [
                0.00013919174671173096,
                0.0006522238254547119,
                -0.00027655623853206635
            ]
        }
    ],
    "materials" : [
        {
            "doubleSided" : true,
            "name" : "TeslaBlack.001",
            "pbrMetallicRoughness" : {
                "baseColorFactor" : [
                    0.12370999902486801,
                    0.12370999902486801,
                    0.12370999902486801,
                    1
                ],
                "metallicRoughnessTexture" : {
                    "index" : 0
                },
                "roughnessFactor" : 0.800495445728302
            }
        }
    ],
    "meshes" : [
        {
            "name" : "Mesh_6.001",
            "primitives" : [
                {
                    "attributes" : {
                        "POSITION" : 0,
                        "NORMAL" : 1,
                        "TEXCOORD_0" : 2
                    },
                    "indices" : 3,
                    "material" : 0
                }
            ]
        }
    ],
    "textures" : [
        {
            "sampler" : 0,
            "source" : 0
        }
    ],
    "images" : [
        {
            "bufferView" : 4,
            "mimeType" : "image/png",
            "name" : "TeslaBlack_metallicRoughness"
        }
    ],
    "accessors" : [
        {
            "bufferView" : 0,
            "componentType" : 5126,
            "count" : 13059,
            "max" : [
                1.3192336559295654,
                0.6289587616920471,
                1.3186759948730469
            ],
            "min" : [
                -1.314978837966919,
                -0.6329776644706726,
                -1.3151111602783203
            ],
            "type" : "VEC3"
        },
        {
            "bufferView" : 1,
            "componentType" : 5126,
            "count" : 13059,
            "type" : "VEC3"
        },
        {
            "bufferView" : 2,
            "componentType" : 5126,
            "count" : 13059,
            "type" : "VEC2"
        },
        {
            "bufferView" : 3,
            "componentType" : 5123,
            "count" : 19896,
            "type" : "SCALAR"
        }
    ],
    "bufferViews" : [
        {
            "buffer" : 0,
            "byteLength" : 156708,
            "byteOffset" : 0
        },
        {
            "buffer" : 0,
            "byteLength" : 156708,
            "byteOffset" : 156708
        },
        {
            "buffer" : 0,
            "byteLength" : 104472,
            "byteOffset" : 313416
        },
        {
            "buffer" : 0,
            "byteLength" : 39792,
            "byteOffset" : 417888
        },
        {
            "buffer" : 0,
            "byteLength" : 59712,
            "byteOffset" : 457680
        }
    ],
    "samplers" : [
        {
            "magFilter" : 9729,
            "minFilter" : 9987
        }
    ],
    "buffers" : [
        {
            "byteLength" : 517392,
            "uri" : "data:application/octet-stream;base64,"
        }
    ]
}
